<?xml version="1.0" standalone="no"?>
<!DOCTYPE svg PUBLIC "-//W3C//DTD SVG 20010904//EN"
 "http://www.w3.org/TR/2001/REC-SVG-20010904/DTD/svg10.dtd">
<svg version="1.0" xmlns="http://www.w3.org/2000/svg"
 width="256.000000pt" height="256.000000pt" viewBox="0 0 256.000000 256.000000"
 preserveAspectRatio="xMidYMid meet">

<g transform="translate(0.000000,256.000000) scale(0.100000,-0.100000)"
fill="#000000" stroke="none">
<path d="M160 2540 c0 -13 -7 -20 -20 -20 -13 0 -20 -7 -20 -20 0 -13 -7 -20
-20 -20 -13 0 -20 -7 -20 -20 0 -13 -7 -20 -20 -20 -20 0 -20 -7 -20 -1160 0
-1153 0 -1160 20 -1160 13 0 20 -7 20 -20 0 -13 7 -20 20 -20 13 0 20 -7 20
-20 0 -13 7 -20 20 -20 13 0 20 -7 20 -20 0 -20 7 -20 1120 -20 1113 0 1120 0
1120 20 0 13 7 20 20 20 13 0 20 7 20 20 0 13 7 20 20 20 13 0 20 7 20 20 0
13 7 20 20 20 20 0 20 7 20 1160 0 1153 0 1160 -20 1160 -13 0 -20 7 -20 20 0
13 -7 20 -20 20 -13 0 -20 7 -20 20 0 13 -7 20 -20 20 -13 0 -20 7 -20 20 0
20 -7 20 -1120 20 -1113 0 -1120 0 -1120 -20z m2000 -280 c0 -13 7 -20 20 -20
13 0 20 -7 20 -20 0 -13 7 -20 20 -20 17 0 20 -7 20 -40 0 -33 3 -40 20 -40
20 0 20 -7 20 -840 0 -833 0 -840 -20 -840 -17 0 -20 -7 -20 -40 0 -33 -3 -40
-20 -40 -13 0 -20 -7 -20 -20 0 -13 -7 -20 -20 -20 -13 0 -20 -7 -20 -20 0
-20 -7 -20 -880 -20 -873 0 -880 0 -880 20 0 13 -7 20 -20 20 -13 0 -20 7 -20
20 0 13 -7 20 -20 20 -17 0 -20 7 -20 40 0 33 -3 40 -20 40 -20 0 -20 7 -20
840 0 833 0 840 20 840 17 0 20 7 20 40 0 33 3 40 20 40 13 0 20 7 20 20 0 13
7 20 20 20 13 0 20 7 20 20 0 20 7 20 880 20 873 0 880 0 880 -20z"/>
<path d="M440 2180 c0 -13 -7 -20 -20 -20 -18 0 -20 -7 -20 -60 0 -53 -2 -60
-20 -60 -20 0 -20 -7 -20 -760 0 -753 0 -760 20 -760 18 0 20 -7 20 -60 0 -53
2 -60 20 -60 13 0 20 -7 20 -20 0 -20 7 -20 840 -20 833 0 840 0 840 20 0 13
7 20 20 20 18 0 20 7 20 60 0 53 2 60 20 60 20 0 20 7 20 760 0 753 0 760 -20
760 -18 0 -20 7 -20 60 0 53 -2 60 -20 60 -13 0 -20 7 -20 20 0 20 -7 20 -840
20 -833 0 -840 0 -840 -20z"/>
</g>
</svg>
